<!--?xml version="1.0" encoding="UTF-8"?-->
<svg id="Layer_1" data-name="Layer 1" xmlns="http://www.w3.org/2000/svg" viewBox="0 0 455.49 69.42" style="">
  <defs>
    <style>
      .cls-1 {
        fill: none;
        stroke: #2e3192;
        stroke-miterlimit: 10;
        stroke-width: 2px;
      }
    </style>
  </defs>
  <path class="cls-1 jSyuPaYA_0" d="m40.59,15.08c0,3.26-.92,5.99-2.76,8.2-1.84,2.21-4.41,3.73-7.72,4.56l8.96,18.36h6.2v6.33h-11.39l-11.22-23.65h-7.11v17.32h6.47v6.33H1v-6.33h6.87V8.11H1V1.77h21.09c6.54,0,11.25,1.07,14.15,3.2,2.9,2.13,4.35,5.5,4.35,10.11Zm-7.92-.13c0-2.36-.74-4.09-2.22-5.19-1.48-1.1-3.83-1.65-7.04-1.65h-7.85v14.42h7.38c3.3,0,5.75-.57,7.34-1.72,1.59-1.15,2.39-3.1,2.39-5.86Z"></path>
  <path class="cls-1 jSyuPaYA_1" d="m78.83,29.64v16.71h5.93v6.2h-12.06v-4.35c-3.37,3.3-7.12,4.95-11.25,4.95-2.18,0-4.17-.5-5.98-1.52-1.81-1.01-3.26-2.36-4.35-4.06-1.09-1.7-1.63-3.58-1.63-5.64,0-2.22.6-4.21,1.8-5.95,1.2-1.74,2.82-3.08,4.87-4.03,2.04-.94,4.1-1.42,6.17-1.42,3.46,0,6.68,1.01,9.67,3.03v-3.81c0-2.76-.58-4.74-1.75-5.93-1.17-1.19-3.09-1.79-5.76-1.79-1.89,0-3.46.34-4.73,1.03s-2.32,1.72-3.15,3.12l-6.67-1.65c1.5-2.81,3.54-4.9,6.1-6.28,2.56-1.38,5.6-2.07,9.13-2.07,4.74,0,8.2,1.08,10.39,3.23,2.19,2.16,3.28,5.56,3.28,10.21Zm-16.44,18.16c3.41,0,6.61-1.43,9.6-4.28v-4.14c-3.03-2.36-6.06-3.54-9.1-3.54-1.84,0-3.43.58-4.77,1.74s-2,2.61-2,4.36.58,3.08,1.75,4.19c1.17,1.11,2.67,1.67,4.51,1.67Z"></path>
  <path class="cls-1 jSyuPaYA_2" d="m94.02,46.35v-22.98h-5.96v-6.23h12.9v4.48c4.16-3.3,8.23-4.95,12.23-4.95s6.9,1.84,8.42,5.53c4.54-3.68,8.82-5.53,12.84-5.53,2.85,0,5.13.84,6.82,2.53s2.54,4.27,2.54,7.75v19.41h6.2v6.2h-13.11v-22.44c0-1.55-.08-2.81-.24-3.77-.16-.97-.57-1.79-1.23-2.46-.66-.67-1.71-1.01-3.15-1.01-1.28,0-2.77.38-4.48,1.15-1.71.76-3.5,1.91-5.39,3.44v18.9h6v6.2h-12.97v-23.31c0-2.27-.34-3.9-1.03-4.89-.69-.99-1.81-1.48-3.39-1.48-2.56,0-5.92,1.53-10.07,4.58v18.9h6.23v6.2h-19.54v-6.2h6.37Z"></path>
  <path class="cls-1 jSyuPaYA_3" d="m175.15,18.65v-1.52h6.06v11.76h-6.06v-2.16c-2.02-2.9-4.78-4.35-8.29-4.35-1.84,0-3.35.4-4.51,1.21-1.17.81-1.75,1.85-1.75,3.13,0,1.15.44,2.04,1.33,2.7.89.65,2.88,1.22,5.98,1.72l4.68.91c6.99,1.28,10.48,4.71,10.48,10.28,0,3.26-1.26,5.87-3.79,7.85-2.53,1.98-5.88,2.96-10.06,2.96-1.66,0-3.3-.24-4.9-.72-1.61-.48-2.95-1.08-4.03-1.8v1.92h-6.2v-12.13h6.2v1.21c.34,1.71,1.29,3.08,2.85,4.11,1.56,1.03,3.37,1.55,5.44,1.55,2.27,0,4.05-.4,5.36-1.2,1.3-.8,1.95-1.98,1.95-3.55,0-1.15-.52-2-1.55-2.58-1.03-.57-3.11-1.16-6.23-1.77l-3.6-.77c-3.57-.72-6.19-1.95-7.85-3.71-1.66-1.75-2.49-3.99-2.49-6.7,0-2.2.61-4.08,1.84-5.64,1.22-1.56,2.79-2.73,4.7-3.52,1.91-.79,3.87-1.18,5.9-1.18,3.39,0,6.24.66,8.56,1.99Z"></path>
  <path class="cls-1 jSyuPaYA_4" d="m244.76,15.08c0,3.26-.92,5.99-2.76,8.2s-4.41,3.73-7.72,4.56l8.96,18.36h6.2v6.33h-11.39l-11.22-23.65h-7.11v17.32h6.47v6.33h-21.02v-6.33h6.87V8.11h-6.87V1.77h21.09c6.54,0,11.25,1.07,14.15,3.2,2.9,2.13,4.35,5.5,4.35,10.11Zm-7.92-.13c0-2.36-.74-4.09-2.22-5.19-1.48-1.1-3.83-1.65-7.04-1.65h-7.85v14.42h7.38c3.3,0,5.75-.57,7.34-1.72s2.39-3.1,2.39-5.86Z"></path>
  <path class="cls-1 jSyuPaYA_5" d="m269.82,46.35v6.2h-17.89v-6.2h5.53v-22.98h-5.53v-6.23h12.5v29.21h5.39Zm-4.99-41.14c0,1.15-.42,2.13-1.25,2.96-.83.83-1.82,1.25-2.96,1.25s-2.12-.42-2.93-1.25c-.81-.83-1.21-1.82-1.21-2.96s.4-2.13,1.21-2.96c.81-.83,1.79-1.25,2.93-1.25s2.19.4,3,1.21,1.21,1.81,1.21,3Z"></path>
  <path class="cls-1 jSyuPaYA_6" d="m295.43,18.65v-1.52h6.06v11.76h-6.06v-2.16c-2.02-2.9-4.79-4.35-8.29-4.35-1.84,0-3.35.4-4.51,1.21-1.17.81-1.75,1.85-1.75,3.13,0,1.15.44,2.04,1.33,2.7.89.65,2.88,1.22,5.98,1.72l4.68.91c6.98,1.28,10.48,4.71,10.48,10.28,0,3.26-1.26,5.87-3.79,7.85-2.53,1.98-5.88,2.96-10.06,2.96-1.66,0-3.3-.24-4.9-.72-1.61-.48-2.95-1.08-4.03-1.8v1.92h-6.2v-12.13h6.2v1.21c.34,1.71,1.29,3.08,2.85,4.11,1.56,1.03,3.38,1.55,5.44,1.55,2.27,0,4.05-.4,5.36-1.2,1.3-.8,1.95-1.98,1.95-3.55,0-1.15-.52-2-1.55-2.58-1.03-.57-3.11-1.16-6.23-1.77l-3.6-.77c-3.57-.72-6.19-1.95-7.85-3.71s-2.49-3.99-2.49-6.7c0-2.2.61-4.08,1.84-5.64,1.22-1.56,2.79-2.73,4.7-3.52,1.91-.79,3.87-1.18,5.9-1.18,3.39,0,6.24.66,8.56,1.99Z"></path>
  <path class="cls-1 jSyuPaYA_7" d="m346,36.61h-29.68c.43,3.39,1.74,6.07,3.94,8.04,2.2,1.97,4.9,2.95,8.09,2.95,2.34,0,4.5-.48,6.5-1.45,2-.96,3.67-2.45,5.02-4.45l6.13,2.76c-1.93,3.01-4.46,5.28-7.6,6.82-3.13,1.54-6.54,2.31-10.22,2.31s-7.21-.8-10.18-2.39-5.27-3.82-6.92-6.67c-1.65-2.85-2.48-6.06-2.48-9.64s.81-6.75,2.44-9.6c1.63-2.85,3.86-5.08,6.69-6.69,2.83-1.61,5.95-2.41,9.37-2.41,3.73,0,6.98.83,9.75,2.48,2.77,1.65,4.96,4.01,6.55,7.08,1.59,3.07,2.46,6.69,2.59,10.87Zm-18.77-14.62c-2.63,0-4.93.88-6.91,2.65s-3.25,4.09-3.81,6.99h22.17c-.65-2.9-2.03-5.23-4.14-6.99s-4.55-2.65-7.31-2.65Z"></path>
  <path class="cls-1 jSyuPaYA_8" d="m385.82,47.09c3.12,0,6.5-1.52,10.14-4.55v-19.17h-6.27v-6.23h13.24v29.21h6.06v6.2h-13.04v-4.08c-4.09,3.12-7.97,4.68-11.66,4.68-3.32,0-5.78-.99-7.36-2.96-1.58-1.98-2.38-5.26-2.38-9.84v-16.98h-4.95v-6.23h11.93v24.66c0,1.82.33,3.16.99,4.01.66.85,1.76,1.28,3.28,1.28Z"></path>
  <path class="cls-1 jSyuPaYA_9" d="m454.49,35.03c0,3.3-.76,6.39-2.29,9.27-1.53,2.88-3.61,5.14-6.25,6.81-2.64,1.66-5.57,2.49-8.78,2.49-4.74,0-8.88-1.82-12.43-5.46v14.08h6.91v6.2h-20.28v-6.2h6.4V23.37h-5.93v-6.23h12.9v5.66c1.75-2.07,3.68-3.6,5.79-4.62s4.37-1.52,6.77-1.52c3.35,0,6.32.83,8.93,2.48,2.61,1.65,4.63,3.88,6.08,6.69,1.45,2.81,2.17,5.87,2.17,9.2Zm-17.42,12.2c1.93,0,3.67-.56,5.22-1.68,1.55-1.12,2.76-2.65,3.64-4.58.88-1.93,1.31-3.98,1.31-6.13s-.48-4.18-1.45-6.01c-.97-1.83-2.29-3.29-3.98-4.38-1.68-1.09-3.58-1.63-5.69-1.63s-4.18.58-5.93,1.73c-1.75,1.16-3.11,2.69-4.08,4.6-.97,1.91-1.45,4.01-1.45,6.3,0,3.68,1.16,6.57,3.49,8.66,2.32,2.09,5.29,3.13,8.91,3.13Z"></path>
<style data-made-with="vivus-instant">.jSyuPaYA_0{stroke-dasharray:316 318;stroke-dashoffset:317;animation:jSyuPaYA_draw 2000ms linear 0ms forwards;}.jSyuPaYA_1{stroke-dasharray:224 226;stroke-dashoffset:225;animation:jSyuPaYA_draw 2000ms linear 111ms forwards;}.jSyuPaYA_2{stroke-dasharray:347 349;stroke-dashoffset:348;animation:jSyuPaYA_draw 2000ms linear 222ms forwards;}.jSyuPaYA_3{stroke-dasharray:211 213;stroke-dashoffset:212;animation:jSyuPaYA_draw 2000ms linear 333ms forwards;}.jSyuPaYA_4{stroke-dasharray:316 318;stroke-dashoffset:317;animation:jSyuPaYA_draw 2000ms linear 444ms forwards;}.jSyuPaYA_5{stroke-dasharray:145 147;stroke-dashoffset:146;animation:jSyuPaYA_draw 2000ms linear 555ms forwards;}.jSyuPaYA_6{stroke-dasharray:211 213;stroke-dashoffset:212;animation:jSyuPaYA_draw 2000ms linear 666ms forwards;}.jSyuPaYA_7{stroke-dasharray:234 236;stroke-dashoffset:235;animation:jSyuPaYA_draw 2000ms linear 777ms forwards;}.jSyuPaYA_8{stroke-dasharray:219 221;stroke-dashoffset:220;animation:jSyuPaYA_draw 2000ms linear 888ms forwards;}.jSyuPaYA_9{stroke-dasharray:289 291;stroke-dashoffset:290;animation:jSyuPaYA_draw 2000ms linear 1000ms forwards;}@keyframes jSyuPaYA_draw{100%{stroke-dashoffset:0;}}@keyframes jSyuPaYA_fade{0%{stroke-opacity:1;}94.44444444444444%{stroke-opacity:1;}100%{stroke-opacity:0;}}</style></svg>